{
  "accessors": [
    {
      "bufferView": 2,
      "componentType": 5126,
      "count": 28,
      "max": [
        1.0,
        1.0,
        1.0
      ],
      "min": [
        -1.0,
        0.8035975098609924,
        -1.0
      ],
      "type": "VEC3"
    },
    {
      "bufferView": 2,
      "byteOffset": 336,
      "componentType": 5126,
      "count": 28,
      "max": [
        1.0,
        1.0,
        1.0
      ],
      "min": [
        -1.0,
        -1.0,
        -1.0
      ],
      "type": "VEC3"
    },
    {
      "bufferView": 1,
      "componentType": 5126,
      "count": 28,
      "max": [
        0.875,
        1.0
      ],
      "min": [
        0.0,
        0.0
      ],
      "type": "VEC2"
    },
    {
      "bufferView": 0,
      "componentType": 5125,
      "count": 48,
      "type": "SCALAR"
    },
    {
      "bufferView": 2,
      "byteOffset": 672,
      "componentType": 5126,
      "count": 65534,
      "max": [
        0.1785700023174286,
        0.14320600032806396,
        0.0
      ],
      "min": [
        -0.16264599561691284,
        -0.141293004155159,
        -0.9296579957008362
      ],
      "type": "VEC3"
    },
    {
      "bufferView": 2,
      "byteOffset": 787080,
      "componentType": 5126,
      "count": 65534,
      "max": [
        0.9999674558639526,
        0.9999983310699463,
        0.999997615814209
      ],
      "min": [
        -0.9999362230300903,
        -0.9998437762260437,
        -0.9999853372573853
      ],
      "type": "VEC3"
    },
    {
      "bufferView": 1,
      "byteOffset": 224,
      "componentType": 5126,
      "count": 65534,
      "max": [
        0.9999780058860779,
        1.0
      ],
      "min": [
        0.0,
        0.00038498640060424805
      ],
      "type": "VEC2"
    },
    {
      "bufferView": 0,
      "byteOffset": 192,
      "componentType": 5125,
      "count": 67197,
      "type": "SCALAR"
    },
    {
      "bufferView": 2,
      "byteOffset": 1573488,
      "componentType": 5126,
      "count": 65533,
      "max": [
        0.18762899935245514,
        0.14320600032806396,
        0.0
      ],
      "min": [
        -0.16264599561691284,
        -0.141293004155159,
        -0.9293760061264038
      ],
      "type": "VEC3"
    },
    {
      "bufferView": 2,
      "byteOffset": 2359884,
      "componentType": 5126,
      "count": 65533,
      "max": [
        0.9999066591262817,
        0.9998688697814941,
        0.998879611492157
      ],
      "min": [
        -0.9999628067016602,
        -0.9999715089797974,
        -0.9999494552612305
      ],
      "type": "VEC3"
    },
    {
      "bufferView": 1,
      "byteOffset": 524496,
      "componentType": 5126,
      "count": 65533,
      "max": [
        0.9978430271148682,
        0.9999300241470337
      ],
      "min": [
        9.500000305706635e-05,
        0.0005990266799926758
      ],
      "type": "VEC2"
    },
    {
      "bufferView": 0,
      "byteOffset": 268980,
      "componentType": 5125,
      "count": 65535,
      "type": "SCALAR"
    },
    {
      "bufferView": 2,
      "byteOffset": 3146280,
      "componentType": 5126,
      "count": 16192,
      "max": [
        0.1661040037870407,
        0.12874600291252136,
        -0.16086100041866302
      ],
      "min": [
        -0.14416800439357758,
        -0.10974200069904327,
        -0.8718550205230713
      ],
      "type": "VEC3"
    },
    {
      "bufferView": 2,
      "byteOffset": 3340584,
      "componentType": 5126,
      "count": 16192,
      "max": [
        0.9998242259025574,
        0.9999003410339355,
        0.9993302822113037
      ],
      "min": [
        -0.9999020099639893,
        -0.9996646046638489,
        -0.9999774694442749
      ],
      "type": "VEC3"
    },
    {
      "bufferView": 1,
      "byteOffset": 1048760,
      "componentType": 5126,
      "count": 16192,
      "max": [
        0.9789199829101563,
        0.9962289929389954
      ],
      "min": [
        0.01890300028026104,
        0.04831099510192871
      ],
      "type": "VEC2"
    },
    {
      "bufferView": 0,
      "byteOffset": 531120,
      "componentType": 5125,
      "count": 16194,
      "type": "SCALAR"
    }
  ],
  "asset": {
    "extras": {
      "author": "nusaheritage.id (https://sketchfab.com/nusaheritage)",
      "license": "CC-BY-4.0 (http://creativecommons.org/licenses/by/4.0/)",
      "source": "https://sketchfab.com/3d-models/patung-tari-pendet-b075a8b40d464c7b84f48d1659a73dc1",
      "title": "Patung Tari Pendet"
    },
    "generator": "Sketchfab-16.63.0",
    "version": "2.0"
  },
  "bufferViews": [
    {
      "buffer": 0,
      "byteLength": 595896,
      "name": "floatBufferViews",
      "target": 34963
    },
    {
      "buffer": 0,
      "byteLength": 1178296,
      "byteOffset": 595896,
      "byteStride": 8,
      "name": "floatBufferViews",
      "target": 34962
    },
    {
      "buffer": 0,
      "byteLength": 3534888,
      "byteOffset": 1774192,
      "byteStride": 12,
      "name": "floatBufferViews",
      "target": 34962
    }
  ],
  "buffers": [
    {
      "byteLength": 5309080,
      "uri": "scene.bin"
    }
  ],
  "extensionsUsed": [
    "KHR_materials_specular"
  ],
  "images": [
    {
      "uri": "textures/Material_baseColor.jpeg"
    },
    {
      "uri": "textures/poly_0.013_baseColor.jpeg"
    }
  ],
  "materials": [
    {
      "doubleSided": true,
      "name": "Material",
      "pbrMetallicRoughness": {
        "baseColorTexture": {
          "index": 0
        },
        "metallicFactor": 0.0,
        "roughnessFactor": 0.5
      }
    },
    {
      "doubleSided": true,
      "extensions": {
        "KHR_materials_specular": {
          "specularColorFactor": [
            1.0,
            1.0,
            1.0
          ],
          "specularFactor": 1.0
        }
      },
      "name": "poly_0.013",
      "pbrMetallicRoughness": {
        "baseColorTexture": {
          "index": 1
        },
        "metallicFactor": 0.0,
        "roughnessFactor": 0.968377
      }
    }
  ],
  "meshes": [
    {
      "name": "Object_0",
      "primitives": [
        {
          "attributes": {
            "NORMAL": 1,
            "POSITION": 0,
            "TEXCOORD_0": 2
          },
          "indices": 3,
          "material": 0,
          "mode": 4
        }
      ]
    },
    {
      "name": "Object_1",
      "primitives": [
        {
          "attributes": {
            "NORMAL": 5,
            "POSITION": 4,
            "TEXCOORD_0": 6
          },
          "indices": 7,
          "material": 1,
          "mode": 4
        }
      ]
    },
    {
      "name": "Object_2",
      "primitives": [
        {
          "attributes": {
            "NORMAL": 9,
            "POSITION": 8,
            "TEXCOORD_0": 10
          },
          "indices": 11,
          "material": 1,
          "mode": 4
        }
      ]
    },
    {
      "name": "Object_3",
      "primitives": [
        {
          "attributes": {
            "NORMAL": 13,
            "POSITION": 12,
            "TEXCOORD_0": 14
          },
          "indices": 15,
          "material": 1,
          "mode": 4
        }
      ]
    }
  ],
  "nodes": [
    {
      "children": [
        1
      ],
      "matrix": [
        1.0,
        0.0,
        0.0,
        0.0,
        0.0,
        2.220446049250313e-16,
        -1.0,
        0.0,
        0.0,
        1.0,
        2.220446049250313e-16,
        0.0,
        0.0,
        0.0,
        0.0,
        1.0
      ],
      "name": "Sketchfab_model"
    },
    {
      "children": [
        2
      ],
      "name": "root"
    },
    {
      "children": [
        3,
        5
      ],
      "matrix": [
        1.0,
        0.0,
        0.0,
        0.0,
        0.0,
        2.220446049250313e-16,
        1.0,
        0.0,
        0.0,
        -1.0,
        2.220446049250313e-16,
        0.0,
        0.0,
        0.0,
        0.0,
        1.0
      ],
      "name": "GLTF_SceneRootNode"
    },
    {
      "children": [
        4
      ],
      "matrix": [
        0.22455283999443054,
        0.0,
        0.0,
        0.0,
        0.0,
        0.22455283999443054,
        0.0,
        0.0,
        0.0,
        0.0,
        0.22455283999443054,
        0.0,
        -0.1144033744931221,
        -0.12733560800552368,
        -0.2959892749786377,
        1.0
      ],
      "name": "Cube_0"
    },
    {
      "mesh": 0,
      "name": "Object_4"
    },
    {
      "children": [
        6,
        7,
        8
      ],
      "matrix": [
        1.0,
        0.0,
        0.0,
        0.0,
        0.0,
        0.0,
        1.0,
        0.0,
        0.0,
        -1.0,
        0.0,
        0.0,
        -0.19267907738685608,
        0.08929911255836487,
        -0.3127211928367615,
        1.0
      ],
      "name": "poly.001_1"
    },
    {
      "mesh": 1,
      "name": "Object_6"
    },
    {
      "mesh": 2,
      "name": "Object_7"
    },
    {
      "mesh": 3,
      "name": "Object_8"
    }
  ],
  "samplers": [
    {
      "magFilter": 9729,
      "minFilter": 9987,
      "wrapS": 10497,
      "wrapT": 10497
    }
  ],
  "scene": 0,
  "scenes": [
    {
      "name": "Sketchfab_Scene",
      "nodes": [
        0
      ]
    }
  ],
  "textures": [
    {
      "sampler": 0,
      "source": 0
    },
    {
      "sampler": 0,
      "source": 1
    }
  ]
}
